<svg width="18" height="16" viewBox="0 0 18 16" fill="none" xmlns="http://www.w3.org/2000/svg">
<path d="M15.8 4.11108V8.77774C15.8 11.7109 15.8 13.1775 14.8627 14.0887C13.9255 14.9999 12.417 14.9999 9.40003 14.9999H8.60003C5.58304 14.9999 4.07455 14.9999 3.13728 14.0887C2.20003 13.1775 2.20003 11.7109 2.20003 8.77774V4.11108" fill="#E9E9E9"/>
<path d="M15.8 4.11108V8.77774C15.8 11.7109 15.8 13.1775 14.8627 14.0887C13.9255 14.9999 12.417 14.9999 9.40003 14.9999H8.60003C5.58304 14.9999 4.07455 14.9999 3.13728 14.0887C2.20003 13.1775 2.20003 11.7109 2.20003 8.77774V4.11108" stroke="#282828" stroke-linecap="round"/>
<path d="M1 2.55555C1 1.82226 1 1.45561 1.23431 1.2278C1.46863 1 1.84575 1 2.6 1H15.4C16.1542 1 16.5314 1 16.7657 1.2278C17 1.45561 17 1.82226 17 2.55555C17 3.28885 17 3.65549 16.7657 3.8833C16.5314 4.1111 16.1542 4.1111 15.4 4.1111H2.6C1.84575 4.1111 1.46863 4.1111 1.23431 3.8833C1 3.65549 1 3.28885 1 2.55555Z" fill="#E9E9E9" stroke="#282828"/>
<path d="M6.59999 8.00004C6.59999 7.63767 6.59999 7.45645 6.66089 7.31349C6.74208 7.12294 6.89782 6.97151 7.09385 6.89256C7.24086 6.83337 7.42727 6.83337 7.79999 6.83337H10.2C10.5727 6.83337 10.7591 6.83337 10.9062 6.89256C11.1022 6.97151 11.2579 7.12294 11.3391 7.31349C11.4 7.45645 11.4 7.63767 11.4 8.00004C11.4 8.3624 11.4 8.54362 11.3391 8.68658C11.2579 8.87713 11.1022 9.02857 10.9062 9.10751C10.7591 9.1667 10.5727 9.1667 10.2 9.1667H7.79999C7.42727 9.1667 7.24086 9.1667 7.09385 9.10751C6.89782 9.02857 6.74208 8.87713 6.66089 8.68658C6.59999 8.54362 6.59999 8.3624 6.59999 8.00004Z" stroke="#282828"/>
</svg>
