<svg width="16" height="14" viewBox="0 0 16 14" fill="none" xmlns="http://www.w3.org/2000/svg">
<path d="M5.8999 7C5.8999 6.6894 5.8999 6.53407 5.95319 6.41153C6.02423 6.2482 6.16051 6.1184 6.33203 6.05073C6.46067 6 6.62377 6 6.9499 6H9.0499C9.37603 6 9.53913 6 9.66779 6.05073C9.83929 6.1184 9.97558 6.2482 10.0466 6.41153C10.0999 6.53407 10.0999 6.6894 10.0999 7C10.0999 7.3106 10.0999 7.46593 10.0466 7.58846C9.97558 7.7518 9.83929 7.88159 9.66779 7.94926C9.53913 7.99999 9.37603 7.99999 9.0499 7.99999H6.9499C6.62377 7.99999 6.46067 7.99999 6.33203 7.94926C6.16051 7.88159 6.02423 7.7518 5.95319 7.58846C5.8999 7.46593 5.8999 7.3106 5.8999 7Z" stroke="#E9E9E9"/>
<path d="M13.95 3.6665V7.66649C13.95 10.1806 13.95 11.4377 13.1299 12.2187C12.3099 12.9998 10.9899 12.9998 8.35005 12.9998H7.65005C5.01018 12.9998 3.69025 12.9998 2.87015 12.2187C2.05005 11.4377 2.05005 10.1806 2.05005 7.66649V3.6665" stroke="#E9E9E9" stroke-linecap="round"/>
<path d="M1 2.33333C1 1.70479 1 1.39053 1.20502 1.19526C1.41005 1 1.74003 1 2.4 1H13.6C14.26 1 14.5899 1 14.795 1.19526C15 1.39053 15 1.70479 15 2.33333C15 2.96187 15 3.27613 14.795 3.4714C14.5899 3.66666 14.26 3.66666 13.6 3.66666H2.4C1.74003 3.66666 1.41005 3.66666 1.20502 3.4714C1 3.27613 1 2.96187 1 2.33333Z" stroke="#E9E9E9"/>
</svg>
