<svg width="40" height="40" viewBox="0 0 40 40" fill="none" xmlns="http://www.w3.org/2000/svg">
<rect x="0.75" y="0.75" width="38.5" height="38.5" rx="7.25" stroke="#E9E9E9" stroke-width="1.5"/>
<path d="M10.2487 11.2927C9.85795 11.1553 9.4298 11.3607 9.29242 11.7514C9.15503 12.1422 9.36044 12.5704 9.7512 12.7077L10.2487 11.2927ZM28.6578 18.883L29.3923 19.0344L29.3933 19.0298L28.6578 18.883ZM13.708 18.7602V16.0386H12.208V18.7602H13.708ZM10.5099 11.3845L10.2487 11.2927L9.7512 12.7077L10.0124 12.7996L10.5099 11.3845ZM18.9375 25.2502H24.2404V23.7502H18.9375V25.2502ZM13.708 16.0386C13.708 15.3314 13.7091 14.7413 13.6571 14.2618C13.6034 13.7654 13.487 13.3127 13.205 12.9L11.9666 13.7463C12.0568 13.8784 12.1265 14.0598 12.1659 14.4232C12.207 14.8034 12.208 15.2986 12.208 16.0386H13.708ZM10.0124 12.7996C10.68 13.0343 11.1188 13.1899 11.4416 13.3483C11.7448 13.497 11.8785 13.6175 11.9666 13.7463L13.205 12.9C12.9208 12.4842 12.543 12.2178 12.1024 12.0016C11.6813 11.7951 11.1439 11.6074 10.5099 11.3845L10.0124 12.7996ZM12.208 18.7602C12.208 20.2127 12.2217 21.2601 12.3587 22.0603C12.505 22.9146 12.7972 23.5263 13.3434 24.1024L14.4319 23.0704C14.1118 22.7327 13.9391 22.402 13.8372 21.8071C13.726 21.158 13.708 20.2492 13.708 18.7602H12.208ZM18.9375 23.7502C17.5206 23.7502 16.5376 23.7484 15.7969 23.6434C15.0821 23.542 14.7045 23.3578 14.4319 23.0704L13.3434 24.1024C13.9373 24.7288 14.6901 25.0015 15.5863 25.1285C16.4567 25.252 17.5653 25.2502 18.9375 25.2502V23.7502ZM12.958 15.8702H25.0888V14.3702H12.958V15.8702ZM27.9232 18.7316L27.4235 21.1563L28.8926 21.4591L29.3923 19.0344L27.9232 18.7316ZM25.0888 15.8702C25.9452 15.8702 26.6989 15.8712 27.2937 15.9377C27.5893 15.9707 27.8105 16.0166 27.9659 16.0713C28.1273 16.128 28.153 16.1715 28.1401 16.1546L29.329 15.24C29.094 14.9346 28.7636 14.7617 28.4632 14.6561C28.1567 14.5484 27.8101 14.4861 27.4604 14.447C26.7646 14.3692 25.9174 14.3702 25.0888 14.3702V15.8702ZM29.3933 19.0298C29.5625 18.1819 29.7062 17.4704 29.7414 16.9006C29.7775 16.3144 29.7108 15.7364 29.329 15.24L28.1401 16.1546C28.2021 16.2353 28.2706 16.3806 28.2442 16.8082C28.2168 17.2521 28.1002 17.845 27.9223 18.7362L29.3933 19.0298ZM24.2404 25.2502C25.0021 25.2502 25.6413 25.2515 26.1566 25.1884C26.6923 25.1229 27.1809 24.9796 27.6074 24.632L26.6598 23.4692C26.5346 23.5712 26.3571 23.6527 25.9744 23.6996C25.5712 23.7489 25.0397 23.7502 24.2404 23.7502V25.2502ZM27.4235 21.1563C27.2621 21.9391 27.1535 22.4595 27.0238 22.8444C26.9007 23.2097 26.785 23.3672 26.6598 23.4692L27.6074 24.632C28.0339 24.2844 28.2729 23.8348 28.4453 23.3234C28.6111 22.8314 28.7388 22.2051 28.8926 21.4591L27.4235 21.1563Z" fill="#E9E9E9"/>
<circle cx="16.25" cy="27.75" r="1.5" fill="#E9E9E9"/>
<circle cx="24.5" cy="27.75" r="1.5" fill="#E9E9E9"/>
<path d="M13 15L29 15.5L27 24H13.5L13 15Z" fill="#E9E9E9"/>
</svg>
