<svg width="40" height="40" viewBox="0 0 40 40" fill="none" xmlns="http://www.w3.org/2000/svg">
<path d="M13.8341 21.6033L23.2151 12.009C23.3159 11.906 24.12 11.0836 25.3926 10.6384C27.168 10.0562 28.9777 10.5354 30.4187 12.009C31.8928 13.4827 32.3281 15.2985 31.7588 17.1143C31.3568 18.4169 30.5194 19.3072 30.4187 19.4103L20.3343 29.7239C18.5921 31.5056 14.2361 33.8017 10.2157 29.7239C6.22844 25.646 8.5067 21.157 10.2157 19.4103L21.0376 8.30839C21.4397 7.8972 22.0765 7.8972 22.4785 8.30839C22.8806 8.71957 22.8806 9.37088 22.4785 9.78206L11.6898 20.884C11.5226 21.021 8.13789 24.6186 11.6898 28.2513C15.141 31.7809 18.5246 28.6285 18.8934 28.2513L28.9777 17.9026C28.9777 17.9026 29.547 17.3204 29.8151 16.498C30.1506 15.4016 29.9158 14.4421 28.9777 13.4827C26.9675 11.4268 25.0238 13.1395 24.656 13.4827L15.275 23.043C14.9394 23.3862 14.7057 23.9684 15.275 24.5506C15.8443 25.1329 16.3803 24.8587 16.7159 24.5506L23.2162 17.9026C23.6182 17.5254 24.2883 17.5254 24.6571 17.9026C25.0591 18.3138 25.0591 18.9991 24.6571 19.4103L18.1568 26.0232C17.252 26.9147 15.409 27.634 13.8351 26.0232C12.2269 24.4125 12.9292 22.4936 13.8341 21.6033Z" fill="#00A550"/>
<rect x="0.5" y="0.5" width="39" height="39" rx="7.5" stroke="#00A550"/>
</svg>
