<svg width="30" height="30" viewBox="0 0 30 30" fill="none" xmlns="http://www.w3.org/2000/svg">
<circle cx="15" cy="15" r="14.5" fill="#00A550" stroke="#2F8342"/>
<path d="M27.5978 13C28.1851 12.6117 28.4652 12.1914 28.5978 11.5L28 9L26 5.5L24 3.5L20 1L15.5978 0C13.5989 0.559093 12.4173 1.59296 11.5978 3.5C11.2047 4.41476 10.8122 5.0462 11.0978 6C11.6607 7.87989 14.2084 5.97002 16.0978 6.5C17.5296 6.90162 18.437 7.07057 19.5978 8C21.0358 9.15133 20.2596 12.119 22.0978 12C23.4756 11.9108 23.2244 9.64207 24.5978 9.5C26.3885 9.31476 26.0962 13.993 27.5978 13Z" fill="#2F8342"/>
<path d="M10 26.0001C9.44427 26.4323 9.18524 26.8209 9 27.5001L7.5 27.0001L5 25.5001L3.5 24.0001L1 19.3353L0.5 16.5001C2.25736 16.6953 3.63468 15.8765 5 17.0001C6.14826 17.945 5.44837 19.4487 6.5 20.5001C7.60596 21.6058 9.23557 20.7793 10.2131 22.0001C11.0888 23.0936 12.0364 24.5575 11 25.5001C10.677 25.7938 10.3446 25.732 10 26.0001Z" fill="#2F8342"/>
<path d="M9.02514 14.2851C8.86234 12.8761 9.49235 11.5955 10.8497 11.1322C11.5231 10.9024 11.971 11.0189 12.6743 11.1322C13.621 11.2849 13.996 12.0095 14.9549 12.033C15.6892 12.0511 16.0731 11.384 16.7795 11.5826C17.6361 11.8235 17.6298 12.6689 18.1479 13.3843C18.8951 14.416 19.8131 14.8281 19.9725 16.0867C20.0167 16.4358 20.0009 16.6368 19.9725 16.9875C19.9139 17.7104 19.8212 18.1294 19.5163 18.7891C19.2497 19.3661 18.8707 19.5634 18.604 20.1404C18.2991 20.8001 18.3997 21.2607 18.1479 21.942C17.8749 22.681 17.9273 23.3533 17.2356 23.7436C16.617 24.0927 16.0379 24.0782 15.4111 23.7436C14.5672 23.2932 14.5227 22.4385 14.4988 21.4916C14.4805 20.7666 15.1453 20.3904 14.9549 19.69C14.7591 18.9692 13.9563 18.9896 13.5865 18.3387C13.2272 17.7062 13.8176 16.793 13.1304 16.5371C12.6033 16.3409 12.3247 16.9634 11.762 16.9875C10.2519 17.0523 9.19649 15.768 9.02514 14.2851Z" fill="#2F8342"/>
<path d="M1.50012 14.5C0.704271 14.5 1.97505 13 1.1792 13V11.8369L2.00018 9L3.2171 6.34113L6.00018 3.5C6.58597 4.28105 7.35203 4.535 7.50018 5.5C7.65975 6.53934 7.10731 7.14146 6.50018 8C5.77829 9.02083 4.80436 9.04265 4.00018 10C3.54736 10.5391 2.97748 10.7963 3.00018 11.5C3.02689 12.328 4.50038 11.4189 4.50018 13C4.50012 13.5 2.0012 14.5 1.50012 14.5Z" fill="#2F8342"/>
<path d="M21.6035 21.1588C21.8087 20.31 22.5948 20.2161 23.1381 19.5324C23.7455 18.768 23.5413 17.256 24.5008 17.4365C25.4793 17.6205 24.9478 18.9621 24.8904 19.9561C24.8182 21.2043 24.884 22.2579 23.8712 22.9911C23.3967 23.3346 23.0379 23.617 22.4626 23.5065C21.5038 23.3225 21.3741 22.1078 21.6035 21.1588Z" fill="#2F8342"/>
</svg>
