<svg width="16" height="16" viewBox="0 0 16 16" fill="none" xmlns="http://www.w3.org/2000/svg">
<path d="M6.44444 5.12668C6.58149 4.75102 6.852 4.43425 7.20799 4.23248C7.56406 4.03071 7.98266 3.95695 8.38967 4.02428C8.79668 4.0916 9.16589 4.29566 9.43181 4.60031C9.69781 4.90496 9.84333 5.29054 9.84271 5.68876C9.84271 6.81295 8.09403 7.375 8.09403 7.375M8.11659 9.625H8.12437M6.36667 13.15L7.50222 14.61C7.67108 14.8271 7.75554 14.9357 7.85907 14.9745C7.94968 15.0085 8.05032 15.0085 8.14093 14.9745C8.24446 14.9357 8.32892 14.8271 8.49778 14.61L9.63333 13.15C9.8613 12.8568 9.97532 12.7103 10.1144 12.5984C10.2998 12.4492 10.5187 12.3436 10.7537 12.2901C10.93 12.25 11.12 12.25 11.5 12.25C12.5872 12.25 13.1308 12.25 13.5596 12.0787C14.1313 11.8504 14.5856 11.4123 14.8224 10.8611C15 10.4475 15 9.92335 15 8.875V4.6C15 3.33988 15 2.70982 14.7457 2.22852C14.522 1.80515 14.1651 1.46095 13.726 1.24523C13.2268 1 12.5735 1 11.2667 1H4.73333C3.42654 1 2.77315 1 2.27402 1.24523C1.83498 1.46095 1.47802 1.80515 1.25432 2.22852C1 2.70982 1 3.33988 1 4.6V8.875C1 9.92335 1 10.4475 1.17761 10.8611C1.41443 11.4123 1.86868 11.8504 2.44041 12.0787C2.8692 12.25 3.41281 12.25 4.5 12.25C4.88001 12.25 5.07001 12.25 5.24629 12.2901C5.48131 12.3436 5.7002 12.4492 5.88561 12.5984C6.02466 12.7103 6.13866 12.8568 6.36667 13.15Z" stroke="#E9E9E9" stroke-linecap="round" stroke-linejoin="round"/>
</svg>
