<svg width="40" height="40" viewBox="0 0 40 40" fill="none" xmlns="http://www.w3.org/2000/svg">
<rect x="0.75" y="0.75" width="38.5" height="38.5" rx="7.25" stroke="#2094AD" stroke-width="1.5"/>
<path d="M10.249 11.2927C9.85819 11.1553 9.43004 11.3607 9.29266 11.7514C9.15527 12.1422 9.36068 12.5704 9.75144 12.7077L10.249 11.2927ZM28.658 18.883L29.3925 19.0344L29.3935 19.0298L28.658 18.883ZM13.7083 18.7602V16.0386H12.2083V18.7602H13.7083ZM10.5102 11.3845L10.249 11.2927L9.75144 12.7077L10.0127 12.7996L10.5102 11.3845ZM18.9377 25.2502H24.2406V23.7502H18.9377V25.2502ZM13.7083 16.0386C13.7083 15.3314 13.7093 14.7413 13.6574 14.2618C13.6037 13.7654 13.4873 13.3127 13.2053 12.9L11.9668 13.7463C12.0571 13.8784 12.1268 14.0598 12.1661 14.4232C12.2073 14.8034 12.2083 15.2986 12.2083 16.0386H13.7083ZM10.0127 12.7996C10.6803 13.0343 11.119 13.1899 11.4419 13.3483C11.7451 13.497 11.8788 13.6175 11.9668 13.7463L13.2053 12.9C12.9211 12.4842 12.5432 12.2178 12.1026 12.0016C11.6816 11.7951 11.1442 11.6074 10.5102 11.3845L10.0127 12.7996ZM12.2083 18.7602C12.2083 20.2127 12.2219 21.2601 12.359 22.0603C12.5053 22.9146 12.7974 23.5263 13.3437 24.1024L14.4322 23.0704C14.112 22.7327 13.9393 22.402 13.8374 21.8071C13.7263 21.158 13.7083 20.2492 13.7083 18.7602H12.2083ZM18.9377 23.7502C17.5209 23.7502 16.5378 23.7484 15.7972 23.6434C15.0824 23.542 14.7047 23.3578 14.4322 23.0704L13.3437 24.1024C13.9375 24.7288 14.6903 25.0015 15.5866 25.1285C16.4569 25.252 17.5656 25.2502 18.9377 25.2502V23.7502ZM12.9583 15.8702H25.089V14.3702H12.9583V15.8702ZM27.9234 18.7316L27.4237 21.1563L28.8928 21.4591L29.3925 19.0344L27.9234 18.7316ZM25.089 15.8702C25.9454 15.8702 26.6991 15.8712 27.2939 15.9377C27.5895 15.9707 27.8107 16.0166 27.9661 16.0713C28.1275 16.128 28.1532 16.1715 28.1403 16.1546L29.3292 15.24C29.0942 14.9346 28.7638 14.7617 28.4634 14.6561C28.1569 14.5484 27.8103 14.4861 27.4606 14.447C26.7648 14.3692 25.9176 14.3702 25.089 14.3702V15.8702ZM29.3935 19.0298C29.5627 18.1819 29.7064 17.4704 29.7416 16.9006C29.7777 16.3144 29.711 15.7364 29.3292 15.24L28.1403 16.1546C28.2023 16.2353 28.2708 16.3806 28.2444 16.8082C28.217 17.2521 28.1004 17.845 27.9225 18.7362L29.3935 19.0298ZM24.2406 25.2502C25.0023 25.2502 25.6415 25.2515 26.1568 25.1884C26.6925 25.1229 27.1811 24.9796 27.6076 24.632L26.66 23.4692C26.5348 23.5712 26.3573 23.6527 25.9746 23.6996C25.5714 23.7489 25.0399 23.7502 24.2406 23.7502V25.2502ZM27.4237 21.1563C27.2623 21.9391 27.1537 22.4595 27.024 22.8444C26.9009 23.2097 26.7852 23.3672 26.66 23.4692L27.6076 24.632C28.0341 24.2844 28.2731 23.8348 28.4455 23.3234C28.6113 22.8314 28.739 22.2051 28.8928 21.4591L27.4237 21.1563Z" fill="#2094AD"/>
<circle cx="16.25" cy="27.75" r="1.5" fill="#2094AD"/>
<circle cx="24.5" cy="27.75" r="1.5" fill="#2094AD"/>
<path d="M13 15L29 15.5L27 24H13.5L13 15Z" fill="#2094AD"/>
</svg>
