<?xml version="1.0" encoding="UTF-8" standalone="no"?>
<svg
   width="29.573721"
   height="29.573231"
   viewBox="0 0 29.573721 29.573231"
   fill="none"
   version="1.1"
   id="svg3"
   sodipodi:docname="light-search.svg"
   inkscape:version="1.3.2 (1:1.3.2+202311252150+091e20ef0f)"
   xmlns:inkscape="http://www.inkscape.org/namespaces/inkscape"
   xmlns:sodipodi="http://sodipodi.sourceforge.net/DTD/sodipodi-0.dtd"
   xmlns="http://www.w3.org/2000/svg"
   xmlns:svg="http://www.w3.org/2000/svg">
  <defs
     id="defs3" />
  <sodipodi:namedview
     id="namedview3"
     pagecolor="#ffffff"
     bordercolor="#000000"
     borderopacity="0.25"
     inkscape:showpageshadow="2"
     inkscape:pageopacity="0.0"
     inkscape:pagecheckerboard="0"
     inkscape:deskcolor="#d1d1d1"
     inkscape:zoom="26.966667"
     inkscape:cx="14.981459"
     inkscape:cy="15"
     inkscape:window-width="1920"
     inkscape:window-height="1012"
     inkscape:window-x="0"
     inkscape:window-y="0"
     inkscape:window-maximized="1"
     inkscape:current-layer="svg3" />
  <path
     d="m 23.8965,24.792 c -0.0359,-0.1078 -0.0079,-0.2266 0.0725,-0.307 l 0.5164,-0.5165 c 0.0804,-0.0803 0.1992,-0.1084 0.307,-0.0724 l 1.8775,0.6258 c 0.0538,0.0179 0.1013,0.0507 0.1372,0.0945 l 2.6987,3.2936 c 0.0977,0.1193 0.0891,0.2932 -0.02,0.4023 l -1.1731,1.1731 c -0.109,0.109 -0.283,0.1176 -0.4023,0.0199 L 24.6168,26.8067 C 24.573,26.7708 24.5402,26.7233 24.5223,26.6695 Z"
     fill="#2094ad"
     id="path1" />
  <circle
     cx="14.3158"
     cy="14.3158"
     r="14.3158"
     fill="#2094ad"
     id="circle1" />
  <path
     d="M 12.5828,8.0767 C 12.5381,7.4959 12.9974,7 13.5799,7 h 1.8402 c 0.5825,0 1.0418,0.4959 0.9971,1.0767 l -0.8462,11 C 15.5309,19.5977 15.0965,20 14.574,20 h -0.148 c -0.5225,0 -0.9569,-0.4023 -0.997,-0.9233 z"
     fill="#1c7a8e"
     id="path2" />
  <circle
     cx="14.5"
     cy="22"
     r="1"
     fill="#1c7a8e"
     id="circle2" />
  <circle
     cx="14.5"
     cy="14.5"
     r="14"
     stroke="#1c7a8e"
     id="circle3" />
</svg>
