<?xml version="1.0" encoding="UTF-8" standalone="no"?>
<svg
   width="31.102394"
   height="31.655336"
   viewBox="0 0 31.102394 31.655336"
   fill="none"
   version="1.1"
   id="svg5"
   sodipodi:docname="light-target.svg"
   inkscape:version="1.3.2 (1:1.3.2+202311252150+091e20ef0f)"
   xmlns:inkscape="http://www.inkscape.org/namespaces/inkscape"
   xmlns:sodipodi="http://sodipodi.sourceforge.net/DTD/sodipodi-0.dtd"
   xmlns="http://www.w3.org/2000/svg"
   xmlns:svg="http://www.w3.org/2000/svg">
  <defs
     id="defs5" />
  <sodipodi:namedview
     id="namedview5"
     pagecolor="#ffffff"
     bordercolor="#000000"
     borderopacity="0.25"
     inkscape:showpageshadow="2"
     inkscape:pageopacity="0.0"
     inkscape:pagecheckerboard="0"
     inkscape:deskcolor="#d1d1d1"
     inkscape:zoom="25.28125"
     inkscape:cx="15.980222"
     inkscape:cy="15.644005"
     inkscape:window-width="1920"
     inkscape:window-height="1012"
     inkscape:window-x="0"
     inkscape:window-y="0"
     inkscape:window-maximized="1"
     inkscape:current-layer="svg5" />
  <ellipse
     cx="13"
     cy="18.155237"
     rx="13"
     ry="13.5"
     fill="#2094ad"
     id="ellipse1" />
  <path
     d="m 25.7477,18.181637 c 0,7.1776 -5.6642,12.9737 -12.6238,12.9737 -6.95969,0 -12.6239,-5.7961 -12.6239,-12.9737 0,-7.1777 5.66421,-12.9737299 12.6239,-12.9737299 6.9596,0 12.6238,5.7960299 12.6238,12.9737299 z"
     stroke="#1c7a8e"
     id="path1" />
  <path
     d="m 22.5,18.155237 c 0,5.5461 -4.276,10 -9.5,10 -5.224,0 -9.5,-4.4539 -9.5,-10 0,-5.5461 4.276,-9.9999999 9.5,-9.9999999 5.224,0 9.5,4.4538999 9.5,9.9999999 z"
     stroke="#1c7a8e"
     id="path2" />
  <path
     d="m 19.5,18.155237 c 0,3.899 -2.9421,7 -6.5,7 -3.55792,0 -6.5,-3.101 -6.5,-7 0,-3.899 2.94208,-7 6.5,-7 3.5579,0 6.5,3.101 6.5,7 z"
     stroke="#1c7a8e"
     id="path3" />
  <path
     d="m 16.5,18.155237 c 0,2.2661 -1.6207,4 -3.5,4 -1.8793,0 -3.5,-1.7339 -3.5,-4 0,-2.2661 1.6207,-4 3.5,-4 1.8793,0 3.5,1.7339 3.5,4 z"
     stroke="#1c7a8e"
     id="path4" />
  <circle
     cx="13"
     cy="18.155237"
     r="1"
     stroke="#1c7a8e"
     stroke-width="2"
     id="circle4" />
  <line
     x1="13"
     y1="18.322647"
     x2="24.364468"
     y2="6.6552501"
     stroke="#1c7a8e"
     stroke-width="1.99965"
     stroke-linecap="round"
     id="line4" />
  <path
     d="m 25.4586,0.11886514 c 0.2074,-0.213007 0.5607,-0.127384 0.6535,0.158395 l 1.1177,3.44228696 c 0.0392,0.12101 0.1317,0.21596 0.2496,0.25629 l 3.3529,1.14743 c 0.2784,0.09526 0.3618,0.45796 0.1543,0.67097 l -2.9055,2.98297 c -0.0634,0.06506 -0.1465,0.10605 -0.2355,0.11621 l -5.5911,0.63778 c -0.2514,0.02868 -0.4638,-0.1894 -0.4359,-0.44749 l 0.6213,-5.74009 c 0.0099,-0.09145 0.0498,-0.17672 0.1132,-0.24178 z"
     fill="#2094ad"
     id="path5" />
</svg>
