<?xml version="1.0" encoding="UTF-8" standalone="no"?>
<svg
   width="15.000923"
   height="15.001369"
   viewBox="0 0 15.000923 15.001369"
   fill="none"
   version="1.1"
   id="svg1"
   sodipodi:docname="light-help.svg"
   inkscape:version="1.3.2 (1:1.3.2+202311252150+091e20ef0f)"
   xmlns:inkscape="http://www.inkscape.org/namespaces/inkscape"
   xmlns:sodipodi="http://sodipodi.sourceforge.net/DTD/sodipodi-0.dtd"
   xmlns="http://www.w3.org/2000/svg"
   xmlns:svg="http://www.w3.org/2000/svg">
  <defs
     id="defs1" />
  <sodipodi:namedview
     id="namedview1"
     pagecolor="#ffffff"
     bordercolor="#000000"
     borderopacity="0.25"
     inkscape:showpageshadow="2"
     inkscape:pageopacity="0.0"
     inkscape:pagecheckerboard="0"
     inkscape:deskcolor="#d1d1d1"
     inkscape:zoom="50.5625"
     inkscape:cx="7.4956737"
     inkscape:cy="7.5055624"
     inkscape:window-width="1920"
     inkscape:window-height="1012"
     inkscape:window-x="0"
     inkscape:window-y="0"
     inkscape:window-maximized="1"
     inkscape:current-layer="svg1" />
  <path
     style="color:#000000;fill:#323232;stroke-linecap:round;stroke-linejoin:round;-inkscape-stroke:none"
     d="m 4.2328843,4.2923279e-4 c -1.3067887,0 -2.025557,-0.0245090628 -2.6796875,0.29687499721 C 1.021497,0.55855213 0.58700879,0.97591533 0.31296239,1.4945698 -0.02556692,2.1352358 4.6239201e-4,2.8399198 4.6239201e-4,4.1000386 v 4.2753906 c 0,1.048349 -0.019293102,1.6292628 0.21874999799,2.1835938 0.2904294,0.675976 0.84549811,1.208204 1.53710941,1.484375 0.5639884,0.225311 1.1569517,0.207031 2.2441406,0.207031 0.3800096,0 0.5342569,0.0045 0.6347656,0.02734 0.1616907,0.03681 0.31206,0.109995 0.4375,0.210937 0.076981,0.06195 0.1724125,0.175591 0.4003906,0.46875 l 1.1347657,1.458985 c 0.1688546,0.217093 0.2692251,0.412309 0.5761718,0.527343 0.2046246,0.07678 0.428188,0.07678 0.6328126,0 0.3069467,-0.115034 0.4073172,-0.31025 0.5761718,-0.527343 l 1.1347659,-1.458985 c 0.22792,-0.293136 0.323387,-0.406795 0.40039,-0.46875 0.1254156,-0.100928 0.2758256,-0.174131 0.4374996,-0.210937 0.100545,-0.02286 0.254766,-0.02734 0.634766,-0.02734 1.087199,0 1.68015,0.01828 2.244141,-0.207031 0.691571,-0.276169 1.246689,-0.808363 1.537109,-1.484375 0.238028,-0.554327 0.21875,-1.1352448 0.21875,-2.1835938 V 4.1000386 c 0,-1.2601188 0.026,-1.9648072 -0.3125,-2.6054688 C 14.413933,0.97594803 13.979511,0.55855773 13.447728,0.29730423 12.793579,-0.02404354 12.074839,4.2923279e-4 10.76804,4.2923279e-4 Z m 0,0.99999996721 H 10.76804 c 1.306799,0 1.894031,0.024248 2.238281,0.1933594 0.346416,0.170186 0.623505,0.4414139 0.796875,0.7695312 0.170099,0.3219375 0.197266,0.8766 0.197266,2.1367188 v 4.2753906 c 0,1.048349 -0.01955,1.51619 -0.136719,1.7890628 -0.183179,0.426386 -0.536453,0.770741 -0.988281,0.951171 -0.293608,0.117293 -0.787801,0.134766 -1.875,0.134766 -0.38,0 -0.605367,-0.0046 -0.857422,0.05273 -0.3083246,0.07019 -0.5964126,0.208778 -0.8417963,0.40625 -0.2011559,0.161845 -0.3344812,0.341503 -0.5625,0.634766 L 7.603978,13.803163 c -0.1264597,0.162587 -0.1181511,0.151165 -0.1035156,0.152344 0.014636,-0.0012 0.022944,0.01024 -0.1035156,-0.152344 L 6.2621811,12.344179 c -0.2280414,-0.29324 -0.3613807,-0.472916 -0.5625,-0.634766 -0.2453796,-0.197457 -0.533448,-0.336057 -0.8417968,-0.40625 -0.2520509,-0.05734 -0.4774123,-0.05273 -0.8574219,-0.05273 -1.0871889,0 -1.5814093,-0.01748 -1.875,-0.134766 C 1.6736148,10.935234 1.3203913,10.590914 1.1371811,10.164492 1.0200047,9.8916232 1.0004624,9.4237782 1.0004624,8.3754292 V 4.1000386 c 0,-1.2601188 0.027155,-1.8147857 0.1972656,-2.1367188 C 1.3710812,1.6352351 1.6482237,1.3639802 1.994603,1.1937886 2.3387315,1.0247131 2.9260956,1.0004292 4.2328843,1.0004292 Z m 3.7382812,2.03125 C 7.4516841,2.9457435 6.9182335,3.0384357 6.4613999,3.2973042 6.0046366,3.556191 5.6537072,3.9658597 5.4750718,4.4555073 a 0.5,0.5 0 0 0 0.2988281,0.640625 0.5,0.5 0 0 0 0.640625,-0.296875 C 6.5099892,4.5375857 6.7003245,4.3130507 6.9555405,4.1683979 7.2108462,4.0237269 7.5145184,3.9692831 7.8090562,4.0180073 8.1036045,4.066726 8.3672665,4.2148689 8.5551499,4.4301167 8.7430997,4.6453757 8.8426888,4.9120202 8.8422593,5.1879292 a 0.50005,0.50005 0 0 0 0,0.00195 c 0,0.3028444 -0.2711358,0.6037115 -0.6445313,0.84375 C 7.8243326,6.2736709 7.4418686,6.3988667 7.4418686,6.3988667 A 0.5,0.5 0 0 0 7.1176499,7.0277729 0.5,0.5 0 0 0 7.7465562,7.3519917 c 0,0 0.4912438,-0.1545291 0.9921875,-0.4765625 C 9.2396873,6.5533958 9.8422594,6.0112269 9.8422594,5.1898823 9.8430694,4.6693521 9.6531054,4.165954 9.3090562,3.7719136 8.9651001,3.377862 8.4906364,3.1176004 7.9711655,3.0316792 Z m -0.3535156,5.59375 a 0.5,0.5 0 0 0 -0.5,0.5 0.5,0.5 0 0 0 0.5,0.5 h 0.00781 a 0.5,0.5 0 0 0 0.5,-0.5 0.5,0.5 0 0 0 -0.5,-0.5 z"
     id="path1" />
</svg>
