<?xml version="1.0" encoding="UTF-8" standalone="no"?>
<svg
   width="12"
   height="15"
   viewBox="0 0 12 15"
   fill="none"
   version="1.1"
   id="svg4"
   sodipodi:docname="light-works.svg"
   inkscape:version="1.3.2 (1:1.3.2+202311252150+091e20ef0f)"
   xmlns:inkscape="http://www.inkscape.org/namespaces/inkscape"
   xmlns:sodipodi="http://sodipodi.sourceforge.net/DTD/sodipodi-0.dtd"
   xmlns="http://www.w3.org/2000/svg"
   xmlns:svg="http://www.w3.org/2000/svg">
  <defs
     id="defs4" />
  <sodipodi:namedview
     id="namedview4"
     pagecolor="#ffffff"
     bordercolor="#000000"
     borderopacity="0.25"
     inkscape:showpageshadow="2"
     inkscape:pageopacity="0.0"
     inkscape:pagecheckerboard="0"
     inkscape:deskcolor="#d1d1d1"
     inkscape:zoom="50.5625"
     inkscape:cx="6.0123609"
     inkscape:cy="7.5055624"
     inkscape:window-width="1920"
     inkscape:window-height="1012"
     inkscape:window-x="0"
     inkscape:window-y="0"
     inkscape:window-maximized="1"
     inkscape:current-layer="svg4" />
  <path
     style="color:#000000;fill:#323232;-inkscape-stroke:none"
     d="M 2.0722656,0 C 0.9211641,0 0,0.9790258 0,2.1464844 V 12.853516 C 0,14.02101 0.9211679,15 2.0722656,15 H 9.927734 C 11.078778,15 12,14.021028 12,12.853516 V 2.1464844 C 12,0.9790074 11.078782,0 9.927734,0 Z m 0,1 H 9.927734 C 10.512285,1 11,1.4946631 11,2.1464844 V 12.853516 C 11,13.505401 10.512289,14 9.927734,14 H 2.0722656 C 1.4876051,14 1,13.505419 1,12.853516 V 2.1464844 C 1,1.4946448 1.4876089,1 2.0722656,1 Z"
     id="path1" />
  <path
     d="M 3.64258,4.61768 H 8.35687"
     stroke="#323232"
     stroke-linecap="round"
     id="path2" />
  <path
     d="M 3.64258,7.91174 H 8.35687"
     stroke="#323232"
     stroke-linecap="round"
     id="path3" />
  <path
     d="M 3.64258,11.2058 H 6.78544"
     stroke="#323232"
     stroke-linecap="round"
     id="path4" />
</svg>
