<svg width="40" height="40" viewBox="0 0 40 40" fill="none" xmlns="http://www.w3.org/2000/svg">
<g clip-path="url(#clip0_1400_2669)">
<path d="M32.0002 31.5C28.4521 34.232 24.4595 35.9976 19.9815 35.9778C15.5035 35.9581 11.1596 34.4473 7.63574 31.6841L12.9488 29.1935C13.2019 29.0746 13.4447 28.9351 13.6749 28.7764C13.7448 28.7284 13.8147 28.6782 13.8813 28.6257C14.4596 28.1833 14.9355 27.6213 15.2767 26.9781C15.5347 26.4839 15.706 25.9491 15.7834 25.3971C15.8367 25.0388 15.8637 24.6772 15.8642 24.315C15.8642 23.6904 15.8303 23.0659 15.8238 22.4402C15.8194 22.0945 15.8158 21.7483 15.8128 21.4019L16.0312 21.511L16.599 21.8048L16.8621 21.8495L19.9063 22.3671L23.3042 22.9458L23.4069 26.4398L23.4407 27.5819L23.4571 28.1366V28.1704L24.7783 28.7076L32.0002 31.5Z" fill="#F2A196"/>
<path d="M23.4436 27.9118C23.0683 27.9763 22.6822 27.9165 22.3441 27.7414L15.8321 22.4152C15.8245 22.1685 15.8179 22.4272 15.8146 22.1805C15.8103 21.8347 15.8066 21.4886 15.8037 21.1421L16.0221 21.2513L16.5899 21.545L16.853 21.5898L19.8972 22.1073L23.2951 22.686L23.3977 26.18L23.4316 27.3221L23.448 27.8768V27.9128L23.4436 27.9118Z" fill="#E88870"/>
<path d="M38.4997 34.5002C35.5 37.5002 40 39.5002 20 39.0002C0.500002 38.5127 3.99999 38.0002 1.99996 35.0002C-7.24792e-05 32.0002 12.7467 29.1192 12.9997 29.0002C13.2527 28.8813 13.2935 28.677 13.5475 28.6261C13.6752 28.6005 13.8808 28.6261 13.8808 28.6261C13.8808 28.6261 19.9615 31.6102 22.9969 30.2443C23.7198 29.9167 24.3836 29.3882 24.7767 28.7091C25.1698 28.0299 41.4994 31.5002 38.4997 34.5002Z" fill="#2094AD"/>
<path d="M30.4102 9.92538C30.4004 9.9898 30.3884 10.0531 30.3742 10.1165C30.2984 10.4411 30.1767 10.7532 30.0128 11.0435L30.004 11.0588C29.9418 11.1679 29.8752 11.2771 29.8031 11.3863C29.6119 11.6666 29.4033 11.9347 29.1786 12.1889L29.0443 12.3384C28.9536 12.44 28.8619 12.5393 28.7702 12.6376C28.8394 12.6228 28.9105 12.6187 28.9809 12.6256C29.0071 12.6278 29.033 12.6321 29.0585 12.6387C29.4068 12.7108 29.7049 13.0351 29.7977 13.403C29.8031 13.427 29.8086 13.4522 29.813 13.4762C29.8992 13.9653 29.7038 14.4589 29.4625 14.8956C29.0399 15.6687 28.4306 16.183 27.8945 16.8545C27.4927 17.3545 27.27 17.9463 26.8321 18.4246L26.7994 18.4606L26.7732 18.4868C25.6158 19.6792 23.8065 19.962 22.2964 20.4773C21.7505 20.6651 15.8303 22.3466 15.8303 22.7135C15.8303 22.6338 15.2505 22.0584 14.5201 21.3585C11.8995 18.8701 11.038 15.0256 12.5972 11.7281C14.2733 8.17946 18.0796 5.64739 21.7046 4.43103C22.838 4.05106 24.1242 3.79556 25.1987 4.32184C26.2731 4.84813 26.8081 6.4805 25.9171 7.27757C26.4775 6.85358 27.1745 6.65105 27.8749 6.7087C28.5217 6.74922 29.1318 7.02359 29.5913 7.48066C29.848 7.738 30.0547 8.04088 30.2006 8.37382C30.2606 8.51197 30.3106 8.65429 30.3502 8.79965C30.4485 9.1666 30.4689 9.55006 30.4102 9.92538Z" fill="#F2D4CF"/>
<path d="M30.4104 9.92539C30.4006 9.98981 30.3886 10.0531 30.3744 10.1165C30.2986 10.4411 30.1769 10.7532 30.013 11.0435L30.0042 11.0588C29.942 11.1679 29.8754 11.2771 29.8033 11.3863C29.6121 11.6666 29.4035 11.9347 29.1788 12.1889L29.0445 12.3384C28.9538 12.44 28.8621 12.5394 28.7704 12.6376C28.8396 12.6228 28.9107 12.6187 28.9811 12.6256C29.0073 12.6278 29.0332 12.6321 29.0587 12.6387C29.407 12.7108 29.7051 13.0351 29.7979 13.403C29.8033 13.4271 29.8088 13.4522 29.8132 13.4762C29.8994 13.9653 29.704 14.4589 29.4627 14.8956C29.0401 15.6687 28.4308 16.183 27.8947 16.8545C27.4929 17.3546 27.2702 17.9464 26.8323 18.4246L26.7996 18.4606L26.7734 18.4868C26.3343 17.8961 26.0546 17.2024 25.961 16.4723C25.7743 14.9611 25.8878 13.3146 25.8365 11.7849C25.819 11.2509 25.7874 10.6144 25.9588 10.1077C26.0057 9.98231 26.0684 9.86342 26.1455 9.75396C26.3465 9.42982 26.5755 9.124 26.8301 8.84006C27.1188 8.53269 27.4834 8.30675 27.8871 8.18493C28.105 8.12298 28.3284 8.08203 28.5542 8.06264C28.7956 8.03897 29.0389 8.04373 29.2792 8.07683C29.5997 8.12259 29.9096 8.225 30.1942 8.37928C30.2543 8.51744 30.3043 8.65975 30.3438 8.80512C30.4435 9.16986 30.4662 9.55139 30.4104 9.92539Z" fill="#DAAEA8"/>
<path d="M14.738 20.1997C15.7632 20.1997 16.5942 19.3687 16.5942 18.3435C16.5942 17.3184 15.7632 16.4873 14.738 16.4873C13.7129 16.4873 12.8818 17.3184 12.8818 18.3435C12.8818 19.3687 13.7129 20.1997 14.738 20.1997Z" fill="#F2A196"/>
<path d="M15.3279 20.0053C16.2457 20.0053 16.9897 19.2613 16.9897 18.3435C16.9897 17.4257 16.2457 16.6816 15.3279 16.6816C14.41 16.6816 13.666 17.4257 13.666 18.3435C13.666 19.2613 14.41 20.0053 15.3279 20.0053Z" fill="#E88870"/>
<path d="M15.3516 16.5965L15.832 22.8202L23.0865 27.0589C23.5883 27.2463 24.1419 27.2404 24.6396 27.0422C25.1373 26.844 25.5434 26.4678 25.779 25.9867C26.8229 23.8488 28.4978 20.4738 28.2773 19.217C27.9497 17.3608 27.0762 16.7057 27.0762 16.7057L27.4398 14.5285C27.5763 13.7085 27.7521 12.8524 27.549 12.0281C27.3164 11.0836 26.6023 10.6796 26.0149 9.97314C24.4688 11.9647 21.9269 13.0905 19.7071 14.2315C18.5617 14.8255 15.3516 16.5965 15.3516 16.5965Z" fill="#F2A196"/>
<path d="M23.4903 16.0615C23.4816 16.0986 24.9491 20.0054 24.9491 20.0054L22.9902 20.1015" stroke="#00214E" stroke-width="0.5" stroke-miterlimit="10"/>
<path d="M18.8516 15.3048C19.8624 15.0961 20.9021 15.0669 21.923 15.2185" stroke="#00214E" stroke-width="0.5" stroke-miterlimit="10"/>
<path d="M25.2988 15.3171C25.923 15.1729 26.5661 15.1283 27.2042 15.185" stroke="#00214E" stroke-width="0.5" stroke-miterlimit="10"/>
<path d="M20.9831 21.1932C20.9981 21.1696 21.0177 21.1493 21.0408 21.1336C21.064 21.1179 21.0901 21.1072 21.1175 21.1021C21.145 21.097 21.1732 21.0976 21.2004 21.1038C21.2277 21.1101 21.2533 21.1219 21.2757 21.1386C21.5029 21.298 21.9178 21.6365 22.5074 21.7533C23.311 21.9138 24.0076 21.5917 24.1747 21.7992C24.2686 21.916 24.1539 22.059 23.9345 22.2359C23.7046 22.408 23.4426 22.5324 23.164 22.6016C22.8853 22.6708 22.5956 22.6834 22.3119 22.6388C21.5389 22.4936 20.958 21.5983 20.958 21.2805C20.9589 21.2498 20.9676 21.2197 20.9831 21.1932Z" fill="#2094AD"/>
<path d="M20.6942 16.5571C21.3602 16.5626 21.3602 17.5802 20.6942 17.5857H20.6636C19.9976 17.5802 19.9976 16.5626 20.6636 16.5571H20.6942Z" fill="#00214E"/>
<path d="M26.183 16.4873C26.801 16.4873 26.801 17.4372 26.183 17.4416H26.1557C25.5366 17.4416 25.5366 16.4917 26.1557 16.4873H26.183Z" fill="#00214E"/>
<rect x="0.75" y="0.75" width="38.5" height="38.5" rx="7.25" stroke="#2094AD" stroke-width="1.5"/>
</g>
<defs>
<clipPath id="clip0_1400_2669">
<rect width="40" height="40" fill="white"/>
</clipPath>
</defs>
</svg>
