<svg width="31" height="24" viewBox="0 0 31 24" fill="none" xmlns="http://www.w3.org/2000/svg">
<path d="M7.5 21.1065C7.5 22.4995 6.53846 23.5 5.5 23.5C4.46154 23.5 3.5 22.4995 3.5 21.1065C3.5 19.7134 4.46154 18.7129 5.5 18.7129C6.53846 18.7129 7.5 19.7134 7.5 21.1065Z" fill="#2094AD" stroke="#1C7A8E"/>
<path d="M25.5 21.1065C25.5 22.4995 24.5385 23.5 23.5 23.5C22.4615 23.5 21.5 22.4995 21.5 21.1065C21.5 19.7134 22.4615 18.7129 23.5 18.7129C24.5385 18.7129 25.5 19.7134 25.5 21.1065Z" fill="#2094AD" stroke="#1C7A8E"/>
<path d="M20.5 8.96683C20.5 8.69069 20.7239 8.46683 21 8.46683H26.5522C26.6946 8.46683 26.8303 8.5276 26.9252 8.63388L30.373 12.4966C30.4548 12.5882 30.5 12.7067 30.5 12.8296V20.9088C30.5 21.1849 30.2761 21.4088 30 21.4088H21C20.7239 21.4088 20.5 21.1849 20.5 20.9088V8.96683Z" fill="#2094AD" stroke="#1C7A8E"/>
<path d="M24 10.9586C24 10.4063 24.4477 9.95856 25 9.95856H26.168C26.4113 9.95856 26.6462 10.0472 26.8288 10.2079L27.6607 10.9403C27.8764 11.1301 28 11.4036 28 11.6909V12.942C28 13.4943 27.5523 13.942 27 13.942H25C24.4477 13.942 24 13.4943 24 12.942V10.9586Z" fill="#2094AD"/>
<rect width="21.25" height="21.4492" rx="1" fill="#2094AD"/>
<path d="M6.25 10.4809L9.45242 14.2722C9.65828 14.5159 10.0367 14.5071 10.231 14.254L15 8.04346" stroke="#1C7A8E" stroke-width="2" stroke-linecap="round"/>
<rect x="0.5" y="0.5" width="21" height="20.9088" rx="0.5" stroke="#1C7A8E"/>
<path d="M21.5 8.96683C21.5 8.69069 21.7239 8.46683 22 8.46683H26.5522C26.6946 8.46683 26.8303 8.5276 26.9252 8.63388L30.373 12.4966C30.4548 12.5882 30.5 12.7067 30.5 12.8296V20.9088C30.5 21.1849 30.2761 21.4088 30 21.4088H22C21.7239 21.4088 21.5 21.1849 21.5 20.9088V8.96683Z" stroke="#1C7A8E"/>
</svg>
