<?xml version="1.0" encoding="UTF-8" standalone="no"?>
<svg
   width="17.000271"
   height="15.000039"
   viewBox="0 0 17.000271 15.000039"
   fill="none"
   version="1.1"
   id="svg4"
   sodipodi:docname="light-archive-active.svg"
   inkscape:version="1.3.2 (1:1.3.2+202311252150+091e20ef0f)"
   xmlns:inkscape="http://www.inkscape.org/namespaces/inkscape"
   xmlns:sodipodi="http://sodipodi.sourceforge.net/DTD/sodipodi-0.dtd"
   xmlns="http://www.w3.org/2000/svg"
   xmlns:svg="http://www.w3.org/2000/svg">
  <defs
     id="defs4" />
  <sodipodi:namedview
     id="namedview4"
     pagecolor="#ffffff"
     bordercolor="#000000"
     borderopacity="0.25"
     inkscape:showpageshadow="2"
     inkscape:pageopacity="0.0"
     inkscape:pagecheckerboard="0"
     inkscape:deskcolor="#d1d1d1"
     inkscape:zoom="50.5625"
     inkscape:cx="8.5043263"
     inkscape:cy="7.5055624"
     inkscape:window-width="1920"
     inkscape:window-height="1012"
     inkscape:window-x="0"
     inkscape:window-y="0"
     inkscape:window-maximized="1"
     inkscape:current-layer="svg4" />
  <path
     d="m 15.300336,3.6111169 v 4.66666 c 0,2.9331601 0,4.3997601 -0.9373,5.3109601 -0.9372,0.9112 -2.4457,0.9112 -5.4627004,0.9112 h -0.8 c -3.017,0 -4.52548,0 -5.46275,-0.9112 -0.93725,-0.9112 -0.93725,-2.3778 -0.93725,-5.3109601 v -4.66666"
     fill="#323232"
     id="path1" />
  <path
     style="color:#000000;fill:#f1f1f1;stroke-linecap:round;-inkscape-stroke:none"
     d="m 1.7013075,3.111365 a 0.5,0.5 0 0 0 -0.5,0.5 v 4.6660157 c 0,1.4665782 -0.00411,2.5770573 0.1210937,3.4824223 0.1252005,0.905365 0.4020414,1.638441 0.9667969,2.1875 0.5647613,0.549052 1.3078238,0.812485 2.234375,0.933593 0.9265512,0.121109 2.0676734,0.119141 3.5761719,0.119141 h 0.8007812 c 1.5084988,0 2.6496238,0.002 3.5761728,-0.119141 0.926548,-0.121108 1.669643,-0.384529 2.234375,-0.933593 0.564782,-0.549056 0.841589,-1.282132 0.966796,-2.1875 0.125208,-0.905368 0.123047,-2.0158441 0.123047,-3.4824223 V 3.611365 a 0.5,0.5 0 0 0 -0.5,-0.5 0.5,0.5 0 0 0 -0.5,0.5 v 4.6660157 c 0,1.4665782 -0.0042,2.5566833 -0.113281,3.3457033 -0.109117,0.78902 -0.301312,1.245279 -0.673828,1.607422 -0.372468,0.362134 -0.851719,0.553465 -1.667969,0.660156 -0.81625,0.106691 -1.936814,0.109375 -3.4453128,0.109375 H 8.099745 c -1.5084985,0 -2.6290579,-0.0027 -3.4453125,-0.109375 C 3.8381779,13.78397 3.3589715,13.592652 2.9864637,13.230506 2.6139702,12.868365 2.4217474,12.412107 2.3126356,11.623084 2.2035238,10.834061 2.2013075,9.7439589 2.2013075,8.2773807 V 3.611365 a 0.5,0.5 0 0 0 -0.5,-0.5 z"
     id="path2" />
  <g
     id="path3"
     transform="translate(-0.49986445,-0.49996306)">
    <path
       style="color:#000000;fill:#323232;-inkscape-stroke:none"
       d="M 1,2.55555 C 1,1.82226 1,1.45561 1.23431,1.2278 1.46863,1 1.84575,1 2.6,1 h 12.8 c 0.7542,0 1.1314,0 1.3657,0.2278 C 17,1.45561 17,1.82226 17,2.55555 17,3.28885 17,3.65549 16.7657,3.8833 16.5314,4.1111 16.1542,4.1111 15.4,4.1111 H 2.6 c -0.75425,0 -1.13137,0 -1.36569,-0.2278 C 1,3.65549 1,3.28885 1,2.55555 Z"
       id="path5" />
    <path
       style="color:#000000;fill:#f1f1f1;-inkscape-stroke:none"
       d="M 2.5996094,0.5 C 2.2224848,0.5 1.9312023,0.49751982 1.6582031,0.53320312 1.3852039,0.56888643 1.1000049,0.66178922 0.88671875,0.86914063 0.6734395,1.0765033 0.57053583,1.3628431 0.53320312,1.6328125 0.49587042,1.9027819 0.5,2.1880429 0.5,2.5546875 0.5,2.9213371 0.49587,3.2065936 0.5332031,3.4765625 0.5705359,3.7465314 0.6734421,4.0348274 0.88671873,4.2421875 1.1000049,4.4495389 1.3852039,4.5424417 1.6582031,4.578125 1.9312023,4.613808 2.2224848,4.611328 2.5996094,4.611328 H 15.400391 c 0.377099,0 0.6684,0.00248 0.941406,-0.033203 C 16.614803,4.542443 16.89998,4.449571 17.113281,4.2421875 17.326551,4.0348252 17.429466,3.746529 17.466797,3.4765625 17.504128,3.206596 17.5,2.9213371 17.5,2.5546875 17.5,2.1880429 17.5041,1.9027796 17.4668,1.6328125 17.429466,1.3628454 17.326554,1.0765054 17.113281,0.86914063 16.89998,0.66175709 16.614803,0.56888552 16.341797,0.53320312 16.068791,0.49752073 15.77749,0.5 15.400391,0.5 Z m 0,1 H 15.400391 c 0.377099,0 0.649781,0.00217 0.8125,0.023437 0.162718,0.021267 0.184079,0.042084 0.205078,0.0625 0.02103,0.020445 0.0354,0.031914 0.05664,0.1855469 0.02125,0.1536324 0.02539,0.4165585 0.02539,0.7832031 0,0.3666496 -0.0041,0.6315257 -0.02539,0.7851563 -0.02124,0.1536305 -0.03561,0.1650993 -0.05664,0.1855468 -0.021,0.020416 -0.04236,0.039279 -0.205078,0.060547 -0.162719,0.021267 -0.435401,0.025391 -0.8125,0.025391 H 2.5996094 c -0.3771246,0 -0.6497971,-0.00412 -0.8125,-0.025391 C 1.6244065,3.5646709 1.6030649,3.545839 1.5820312,3.5253906 1.5609981,3.504941 1.5466352,3.493472 1.5253906,3.3398438 1.504146,3.1862155 1.5,2.9213371 1.5,2.5546875 1.5,2.1880429 1.50415,1.9251145 1.525391,1.7714844 1.546636,1.6178542 1.561001,1.6063846 1.582032,1.5859375 1.603066,1.5654895 1.624407,1.5447045 1.7871102,1.5234375 1.9498123,1.5021709 2.2224848,1.5 2.5996094,1.5 Z"
       id="path6" />
  </g>
  <path
     d="m 6.0997456,7.5000769 c 0,-0.36237 0,-0.54359 0.0609,-0.68655 0.08119,-0.19055 0.23693,-0.34198 0.43296,-0.42093 0.14701,-0.05919 0.33342,-0.05919 0.70614,-0.05919 h 2.39999 c 0.3727004,0 0.5591004,0 0.7062004,0.05919 0.196,0.07895 0.3517,0.23038 0.4329,0.42093 0.0609,0.14296 0.0609,0.32418 0.0609,0.68655 0,0.36236 0,0.54358 -0.0609,0.68654 -0.0812,0.19055 -0.2369,0.34199 -0.4329,0.42093 -0.1471,0.05919 -0.3335,0.05919 -0.7062004,0.05919 h -2.39999 c -0.37272,0 -0.55913,0 -0.70614,-0.05919 -0.19603,-0.07894 -0.35177,-0.23038 -0.43296,-0.42093 -0.0609,-0.14296 -0.0609,-0.32418 -0.0609,-0.68654 z"
     stroke="#f1f1f1"
     id="path4" />
</svg>
