<svg width="24" height="24" viewBox="0 0 24 24" fill="none" xmlns="http://www.w3.org/2000/svg">
<path d="M0 12C0 6.34314 -1.43051e-07 3.51471 1.75736 1.75736C3.51471 -1.43051e-07 6.34314 0 12 0C17.6568 0 20.4853 -1.43051e-07 22.2426 1.75736C24 3.51471 24 6.34314 24 12C24 17.6568 24 20.4853 22.2426 22.2426C20.4853 24 17.6568 24 12 24C6.34314 24 3.51471 24 1.75736 22.2426C-1.43051e-07 20.4853 0 17.6568 0 12Z" fill="#F8F8F8"/>
<path d="M17 7.00004L7.00004 17L17 7.00004ZM7 7L17 17L7 7Z" fill="#F8F8F8"/>
<path d="M17 7.00004L7.00004 17M7 7L17 17" stroke="#323232" stroke-linecap="round"/>
</svg>
