<?xml version="1.0" encoding="UTF-8" standalone="no"?>
<svg
   width="15.000107"
   height="13.000035"
   viewBox="0 0 15.000107 13.000035"
   fill="none"
   version="1.1"
   id="svg3"
   sodipodi:docname="light-archive.svg"
   inkscape:version="1.3.2 (1:1.3.2+202311252150+091e20ef0f)"
   xmlns:inkscape="http://www.inkscape.org/namespaces/inkscape"
   xmlns:sodipodi="http://sodipodi.sourceforge.net/DTD/sodipodi-0.dtd"
   xmlns="http://www.w3.org/2000/svg"
   xmlns:svg="http://www.w3.org/2000/svg">
  <defs
     id="defs3" />
  <sodipodi:namedview
     id="namedview3"
     pagecolor="#ffffff"
     bordercolor="#000000"
     borderopacity="0.25"
     inkscape:showpageshadow="2"
     inkscape:pageopacity="0.0"
     inkscape:pagecheckerboard="0"
     inkscape:deskcolor="#d1d1d1"
     inkscape:zoom="57.785714"
     inkscape:cx="7.4932015"
     inkscape:cy="6.4981459"
     inkscape:window-width="1920"
     inkscape:window-height="1012"
     inkscape:window-x="0"
     inkscape:window-y="0"
     inkscape:window-maximized="1"
     inkscape:current-layer="svg3" />
  <path
     d="m 5.4004433,6.5000269 c 0,-0.3106 0,-0.46593 0.05328,-0.58847 0.07105,-0.16333 0.20732,-0.29313 0.37884,-0.3608 0.12864,-0.05073 0.29175,-0.05073 0.61788,-0.05073 h 2.1 c 0.32613,0 0.48923,0 0.61789,0.05073 0.1715,0.06767 0.30779,0.19747 0.37882,0.3608 0.0533,0.12254 0.0533,0.27787 0.0533,0.58847 0,0.3106 0,0.46593 -0.0533,0.58846 -0.07103,0.16334 -0.20732,0.29313 -0.37882,0.3608 -0.12866,0.05073 -0.29176,0.05073 -0.61789,0.05073 h -2.1 c -0.32613,0 -0.48924,0 -0.61788,-0.05073 -0.17152,-0.06767 -0.30779,-0.19746 -0.37884,-0.3608 -0.05328,-0.12253 -0.05328,-0.27786 -0.05328,-0.58846 z"
     stroke="#323232"
     id="path1" />
  <path
     style="color:#000000;fill:#323232;stroke-linecap:round;-inkscape-stroke:none"
     d="m 1.5488814,2.6660425 a 0.5,0.5 0 0 0 -0.5,0.5 v 4 c 0,1.2570388 -0.00346,2.2105985 0.1074219,2.9960935 0.1108851,0.785496 0.3620652,1.43507 0.8691406,1.917969 0.5070643,0.482883 1.1717262,0.713811 1.9882813,0.81836 0.816555,0.104548 1.816785,0.101562 3.1367187,0.101562 h 0.6992188 c 1.3198937,0 2.3201583,0.003 3.1367183,-0.101562 0.81656,-0.104549 1.481216,-0.33547 1.988281,-0.81836 0.507076,-0.482899 0.756303,-1.132473 0.867188,-1.917969 0.110885,-0.785495 0.107422,-1.7390547 0.107422,-2.9960935 v -4 a 0.5,0.5 0 0 0 -0.5,-0.5 0.5,0.5 0 0 0 -0.5,0.5 v 4 c 0,1.2570388 -0.0035,2.1905486 -0.09766,2.8574225 -0.09414,0.666873 -0.253383,1.035884 -0.566407,1.333984 -0.313034,0.298109 -0.71737,0.458127 -1.425781,0.548828 -0.708407,0.0907 -1.6898676,0.09375 -3.0097613,0.09375 H 7.1504439 c -1.3199337,0 -2.3013622,-0.003 -3.0097656,-0.09375 C 3.4322749,11.815576 3.0279419,11.655565 2.7148971,11.357449 2.4018733,11.059349 2.2406774,10.690338 2.1465377,10.023465 2.052398,9.3565911 2.0488814,8.4230813 2.0488814,7.1660425 v -4 a 0.5,0.5 0 0 0 -0.5,-0.5 z"
     id="path2" />
  <path
     style="color:#000000;fill:#323232;-inkscape-stroke:none"
     d="m 1.9004439,2.6911203e-5 c -0.3299846,0 -0.587333,-0.0020349512 -0.8320312,0.0292968688 C 0.82371443,0.06065561 0.55894943,0.14399769 0.35942833,0.33401129 0.1599201,0.52403161 0.06530359,0.79042431 0.03130333,1.0312769 -0.00269693,1.2721295 5.3329794e-5,1.5197416 5.3329794e-5,1.8340113 c 0,0.3142697 -0.0027502598,0.5599286 0.03125000021,0.8007812 0.03400026,0.2408526 0.12861677,0.5091984 0.328125,0.6992188 0.1995211,0.1900136 0.4642861,0.2733556 0.70898437,0.3046875 0.2446982,0.031332 0.5020466,0.027344 0.8320312,0.027344 H 13.099662 c 0.33,0 0.587339,0.00399 0.832032,-0.027344 0.244692,-0.031332 0.50947,-0.1147459 0.708984,-0.3046875 0.199494,-0.1900252 0.294129,-0.4583713 0.328125,-0.6992185 0.034,-0.2408471 0.03125,-0.4865115 0.03125,-0.8007812 0,-0.3142697 0.0027,-0.5618872 -0.03125,-0.8027344 C 14.934807,0.79042971 14.840172,0.52403681 14.640678,0.33401129 14.441164,0.14406968 14.176386,0.06065607 13.931694,0.02932378 13.687001,-0.0020085 13.429662,2.6911203e-5 13.099662,2.6911203e-5 Z m 0,0.999999988797 H 13.099662 c 0.33,0 0.568546,0.00205 0.705079,0.019531 0.134821,0.017264 0.139044,0.031638 0.144531,0.037109 0.0055,0.00524 0.01204,-0.007 0.0293,0.1152344 0.01725,0.1222356 0.02148,0.3478403 0.02148,0.66211 0,0.3142697 -0.0042,0.5379213 -0.02148,0.6601562 -0.01725,0.122235 -0.02379,0.1099901 -0.0293,0.1152344 -0.0055,0.00547 -0.0097,0.019846 -0.144531,0.037109 -0.136532,0.017483 -0.375078,0.019531 -0.705078,0.019531 H 1.9004439 c -0.3299846,0 -0.5685367,-0.00205 -0.7050781,-0.019531 -0.1365414,-0.017483 -0.1390225,-0.031863 -0.1445313,-0.037109 -0.00551,-0.00525 -0.012042,0.007 -0.029297,-0.1152344 C 1.004283,2.371938 1.0000533,2.148281 1.0000533,1.8340113 c 0,-0.3142697 0.00423,-0.5398799 0.021484,-0.6621094 0.017255,-0.1222295 0.023785,-0.1099849 0.029297,-0.1152344 0.00551,-0.00525 0.00799,-0.019626 0.1445313,-0.037109 0.1365414,-0.017483 0.3750935,-0.019531 0.7050781,-0.019531 z"
     id="path3" />
</svg>
