<?xml version="1.0" encoding="UTF-8" standalone="no"?>
<svg
   width="31.979225"
   height="30.513285"
   viewBox="0 0 31.979225 30.513285"
   fill="none"
   version="1.1"
   id="svg2"
   sodipodi:docname="light-star.svg"
   inkscape:version="1.3.2 (1:1.3.2+202311252150+091e20ef0f)"
   xmlns:inkscape="http://www.inkscape.org/namespaces/inkscape"
   xmlns:sodipodi="http://sodipodi.sourceforge.net/DTD/sodipodi-0.dtd"
   xmlns="http://www.w3.org/2000/svg"
   xmlns:svg="http://www.w3.org/2000/svg">
  <defs
     id="defs2" />
  <sodipodi:namedview
     id="namedview2"
     pagecolor="#ffffff"
     bordercolor="#000000"
     borderopacity="0.25"
     inkscape:showpageshadow="2"
     inkscape:pageopacity="0.0"
     inkscape:pagecheckerboard="0"
     inkscape:deskcolor="#d1d1d1"
     inkscape:zoom="21.289474"
     inkscape:cx="15.970334"
     inkscape:cy="16.745365"
     inkscape:window-width="1920"
     inkscape:window-height="1012"
     inkscape:window-x="0"
     inkscape:window-y="0"
     inkscape:window-maximized="1"
     inkscape:current-layer="svg2" />
  <path
     d="m 15.514112,0.845495 c 0.1496,-0.46066 0.8014,-0.46066 0.951,0 l 3.0902,9.51064 c 0.2008,0.618 0.7768,1.0365 1.4266,1.0365 h 10.0001 c 0.4844,0 0.6857,0.6198 0.2939,0.9045 l -8.0903,5.8779 c -0.5257,0.382 -0.7457,1.059 -0.5449,1.677 l 3.0902,9.5107 c 0.1497,0.4606 -0.3775,0.8437 -0.7694,0.559 l -8.0902,-5.8779 c -0.5258,-0.382 -1.2376,-0.382 -1.7634,0 l -8.0902001,5.8779 c -0.39187,0.2847 -0.91911,-0.0984 -0.76944,-0.559 l 3.09024,-9.5107 c 0.2008,-0.618 -0.0192,-1.295 -0.5449,-1.677 l -8.09029005,-5.8779 c -0.39185,-0.2847 -0.19047,-0.9045 0.2939,-0.9045 H 10.997312 c 0.6498,0 1.2258,-0.4185 1.4266,-1.0365 z"
     fill="#2094ad"
     stroke="#1c7a8e"
     id="path1" />
  <path
     d="m 15.514112,10.227435 c 0.1496,-0.4606 0.8014,-0.4606 0.951,0 l 1.2084,3.7189 c 0.0669,0.206 0.2589,0.3455 0.4755,0.3455 h 3.9102 c 0.4844,0 0.6858,0.6198 0.2939,0.9045 l -3.1634,2.2983 c -0.1753,0.1274 -0.2486,0.3531 -0.1817,0.5591 l 1.2084,3.7188 c 0.1496,0.4607 -0.3776,0.8437 -0.7695,0.559 l -3.1634,-2.2983 c -0.1753,-0.1274 -0.4125,-0.1274 -0.5878,0 l -3.1634,2.2983 c -0.3919,0.2847 -0.9191,-0.0983 -0.7695,-0.559 l 1.2084,-3.7188 c 0.0669,-0.206 -0.0064,-0.4317 -0.1817,-0.5591 l -3.1634001,-2.2983 c -0.3919,-0.2847 -0.1905,-0.9045 0.2939,-0.9045 h 3.9102001 c 0.2166,0 0.4086,-0.1395 0.4755,-0.3455 z"
     fill="#1c7a8e"
     id="path2" />
</svg>
