<svg width="40" height="40" viewBox="0 0 40 40" fill="none" xmlns="http://www.w3.org/2000/svg">
<rect x="0.75" y="0.75" width="38.5" height="38.5" rx="7.25" stroke="#2094AD" stroke-width="1.5"/>
<path fill-rule="evenodd" clip-rule="evenodd" d="M16.6399 11.1006C17.556 10.6898 18.3496 11.6178 18.063 12.4236C17.0906 15.1578 17.6881 18.2632 19.7064 20.2824C21.735 22.312 24.8583 22.9085 27.5991 21.9178C28.3966 21.6296 29.2987 22.4161 28.9044 23.311C28.8927 23.3375 28.881 23.3639 28.8691 23.3903C28.1674 24.9477 27.0449 26.4122 25.5927 27.3942C24.0448 28.4408 22.2193 29 20.3511 29H20.3502C18.1778 28.9976 16.0737 28.2393 14.3988 26.8549C12.7239 25.4706 11.5824 23.5464 11.1701 21.4122C10.7578 19.278 11.1004 17.0668 12.1392 15.1577C13.1239 13.3478 14.7798 11.9414 16.613 11.1127L16.6399 11.1006Z" fill="#2094AD"/>
</svg>
