<svg width="42" height="42" viewBox="0 0 42 42" fill="none" xmlns="http://www.w3.org/2000/svg">
<path d="M1 21C1 30.428 1 35.1422 3.92894 38.071C6.85786 41 11.5719 41 21 41C30.428 41 35.1422 41 38.071 38.071C41 35.1422 41 30.428 41 21C41 11.5719 41 6.85786 38.071 3.92894C35.1422 1 30.428 1 21 1C11.5719 1 6.85786 1 3.92894 3.92894C1.98146 5.87642 1.32888 8.6131 1.1102 13" fill="#00A550"/>
<path d="M1 21C1 30.428 1 35.1422 3.92894 38.071C6.85786 41 11.5719 41 21 41C30.428 41 35.1422 41 38.071 38.071C41 35.1422 41 30.428 41 21C41 11.5719 41 6.85786 38.071 3.92894C35.1422 1 30.428 1 21 1C11.5719 1 6.85786 1 3.92894 3.92894C1.98146 5.87642 1.32888 8.6131 1.1102 13L1 21Z" stroke="#2F8342" stroke-linecap="round"/>
<path d="M26.0386 26.002L23.8454 31.7256C23.209 33.3864 20.88 33.4404 20.3834 31.8058L18.2704 24.8518C18.106 24.311 17.691 23.896 17.1502 23.7316L10.1962 21.6186C8.56157 21.122 8.61557 18.793 10.2765 18.1566L28.608 11.1324C30.0778 10.5692 31.4328 11.9241 30.8696 13.3939L28.9356 18.4414" fill="#2F8342"/>
</svg>
