<svg width="10" height="14" viewBox="0 0 10 14" fill="none" xmlns="http://www.w3.org/2000/svg">
<path d="M7.83341 3.29415C7.83341 4.83175 6.57048 6.08829 5.00008 6.08829C3.42968 6.08829 2.16675 4.83175 2.16675 3.29415C2.16675 1.75654 3.42968 0.5 5.00008 0.5C6.57048 0.5 7.83341 1.75654 7.83341 3.29415Z" stroke="#E9E9E9"/>
<path d="M9.5 10.7058C9.5 11.3934 9.0767 12.0798 8.26045 12.6176C7.44826 13.1526 6.29695 13.4999 5 13.4999C3.70305 13.4999 2.55174 13.1526 1.73955 12.6176C0.923296 12.0798 0.5 11.3934 0.5 10.7058C0.5 10.0181 0.923296 9.33175 1.73955 8.79398C2.55174 8.25889 3.70305 7.91162 5 7.91162C6.29695 7.91162 7.44826 8.25889 8.26045 8.79398C9.0767 9.33175 9.5 10.0181 9.5 10.7058Z" stroke="#E9E9E9"/>
</svg>
