<svg width="30" height="30" viewBox="0 0 30 30" fill="none" xmlns="http://www.w3.org/2000/svg">
<path d="M23.896 24.7919C23.8601 24.6841 23.8881 24.5652 23.9685 24.4849L24.485 23.9684C24.5653 23.8881 24.6842 23.86 24.792 23.8959L26.6694 24.5218C26.7232 24.5397 26.7707 24.5725 26.8066 24.6163L29.5053 27.9099C29.603 28.0292 29.5944 28.2031 29.4853 28.3121L28.3122 29.4853C28.2032 29.5943 28.0292 29.6029 27.91 29.5052L24.6163 26.8066C24.5725 26.7707 24.5398 26.7231 24.5218 26.6694L23.896 24.7919Z" fill="#2F8342"/>
<circle cx="14.3158" cy="14.3158" r="14.3158" fill="#00A550"/>
<path d="M12.5828 8.0767C12.5381 7.4959 12.9974 7 13.5799 7H15.4201C16.0026 7 16.4619 7.4959 16.4172 8.0767L15.571 19.0767C15.5309 19.5977 15.0965 20 14.574 20H14.426C13.9035 20 13.4691 19.5977 13.429 19.0767L12.5828 8.0767Z" fill="#2F8342"/>
<circle cx="14.5" cy="22" r="1" fill="#2F8342"/>
<circle cx="14.5" cy="14.5" r="14" stroke="#2F8342"/>
</svg>
