<svg width="38" height="38" viewBox="0 0 38 38" fill="none" xmlns="http://www.w3.org/2000/svg">
<path d="M18.5245 3.08156C18.6741 2.6209 19.3259 2.6209 19.4755 3.08156L22.5657 12.5922C22.7665 13.2102 23.3425 13.6287 23.9923 13.6287H33.9924C34.4768 13.6287 34.6781 14.2485 34.2863 14.5332L26.196 20.4111C25.6703 20.7931 25.4503 21.4701 25.6511 22.0881L28.7413 31.5988C28.891 32.0594 28.3638 32.4425 27.9719 32.1578L19.8817 26.2799C19.3559 25.8979 18.6441 25.8979 18.1183 26.2799L10.0281 32.1578C9.63623 32.4425 9.10899 32.0594 9.25866 31.5988L12.3489 22.0881C12.5497 21.4701 12.3297 20.7931 11.804 20.4111L3.71371 14.5332C3.32186 14.2485 3.52324 13.6287 4.00761 13.6287H14.0077C14.6575 13.6287 15.2335 13.2102 15.4343 12.5922L18.5245 3.08156Z" fill="#00A550" stroke="#2F8342"/>
<path d="M18.5245 12.4635C18.6741 12.0029 19.3259 12.0029 19.4755 12.4635L20.6839 16.1824C20.7508 16.3884 20.9428 16.5279 21.1594 16.5279H25.0696C25.554 16.5279 25.7554 17.1477 25.3635 17.4324L22.2001 19.7307C22.0248 19.8581 21.9515 20.0838 22.0184 20.2898L23.2268 24.0086C23.3764 24.4693 22.8492 24.8523 22.4573 24.5676L19.2939 22.2693C19.1186 22.1419 18.8814 22.1419 18.7061 22.2693L15.5427 24.5676C15.1508 24.8523 14.6236 24.4693 14.7732 24.0086L15.9816 20.2898C16.0485 20.0838 15.9752 19.8581 15.7999 19.7307L12.6365 17.4324C12.2446 17.1477 12.446 16.5279 12.9304 16.5279H16.8406C17.0572 16.5279 17.2492 16.3884 17.3161 16.1824L18.5245 12.4635Z" fill="#2F8342"/>
</svg>
