<svg width="32" height="32" viewBox="0 0 32 32" fill="none" xmlns="http://www.w3.org/2000/svg">
<ellipse cx="13" cy="18.5" rx="13" ry="13.5" fill="#00A550"/>
<path d="M25.7477 18.5264C25.7477 25.7041 20.0835 31.5001 13.1239 31.5001C6.16421 31.5001 0.5 25.7041 0.5 18.5264C0.5 11.3488 6.16421 5.55273 13.1239 5.55273C20.0835 5.55273 25.7477 11.3488 25.7477 18.5264Z" stroke="#2F8342"/>
<path d="M22.5 18.5C22.5 24.0461 18.224 28.5 13 28.5C7.776 28.5 3.5 24.0461 3.5 18.5C3.5 12.9539 7.776 8.5 13 8.5C18.224 8.5 22.5 12.9539 22.5 18.5Z" stroke="#2F8342"/>
<path d="M19.5 18.5C19.5 22.399 16.5579 25.5 13 25.5C9.44208 25.5 6.5 22.399 6.5 18.5C6.5 14.601 9.44208 11.5 13 11.5C16.5579 11.5 19.5 14.601 19.5 18.5Z" stroke="#2F8342"/>
<path d="M16.5 18.5C16.5 20.7661 14.8793 22.5 13 22.5C11.1207 22.5 9.5 20.7661 9.5 18.5C9.5 16.2339 11.1207 14.5 13 14.5C14.8793 14.5 16.5 16.2339 16.5 18.5Z" stroke="#2F8342"/>
<circle cx="13" cy="18.5" r="1" stroke="#2F8342" stroke-width="2"/>
<line x1="1" y1="-1" x2="17.2874" y2="-1" transform="matrix(0.697746 -0.716345 0.697746 0.716345 13 20.1001)" stroke="#2F8342" stroke-width="2" stroke-linecap="round"/>
<path d="M25.4586 0.463628C25.666 0.250621 26.0193 0.336244 26.1121 0.622023L27.2298 4.06431C27.269 4.18532 27.3615 4.28027 27.4794 4.3206L30.8323 5.46803C31.1107 5.56329 31.1941 5.92599 30.9866 6.139L28.0811 9.12197C28.0177 9.18703 27.9346 9.22802 27.8456 9.23818L22.2545 9.87596C22.0031 9.90464 21.7907 9.68656 21.8186 9.42847L22.4399 3.68838C22.4498 3.59693 22.4897 3.51166 22.5531 3.4466L25.4586 0.463628Z" fill="#39934D"/>
</svg>
