<svg width="31" height="24" viewBox="0 0 31 24" fill="none" xmlns="http://www.w3.org/2000/svg">
<path d="M7.5 21.1064C7.5 22.4995 6.53846 23.5 5.5 23.5C4.46154 23.5 3.5 22.4995 3.5 21.1064C3.5 19.7134 4.46154 18.7129 5.5 18.7129C6.53846 18.7129 7.5 19.7134 7.5 21.1064Z" fill="#00A550" stroke="#2F8342"/>
<path d="M25.5 21.1064C25.5 22.4995 24.5385 23.5 23.5 23.5C22.4615 23.5 21.5 22.4995 21.5 21.1064C21.5 19.7134 22.4615 18.7129 23.5 18.7129C24.5385 18.7129 25.5 19.7134 25.5 21.1064Z" fill="#00A550" stroke="#2F8342"/>
<path d="M20.5 8.9668C20.5 8.69065 20.7239 8.4668 21 8.4668H26.5522C26.6946 8.4668 26.8303 8.52756 26.9252 8.63384L30.373 12.4966C30.4548 12.5882 30.5 12.7067 30.5 12.8295V20.9088C30.5 21.1849 30.2761 21.4088 30 21.4088H21C20.7239 21.4088 20.5 21.1849 20.5 20.9088V8.9668Z" fill="#00A550" stroke="#2F8342"/>
<path d="M24 10.9585C24 10.4062 24.4477 9.9585 25 9.9585H26.168C26.4113 9.9585 26.6462 10.0472 26.8288 10.2079L27.6607 10.9402C27.8764 11.1301 28 11.4035 28 11.6909V12.9419C28 13.4942 27.5523 13.9419 27 13.9419H25C24.4477 13.9419 24 13.4942 24 12.9419V10.9585Z" fill="#2F8342"/>
<rect width="21.25" height="21.4492" rx="1" fill="#00A550"/>
<path d="M6.25 10.4809L9.45242 14.2722C9.65828 14.5159 10.0367 14.5071 10.231 14.254L15 8.04346" stroke="#2F8342" stroke-width="2" stroke-linecap="round"/>
<rect x="0.5" y="0.5" width="21" height="20.9088" rx="0.5" stroke="#2F8342"/>
<path d="M21.5 8.9668C21.5 8.69065 21.7239 8.4668 22 8.4668H26.5522C26.6946 8.4668 26.8303 8.52756 26.9252 8.63384L30.373 12.4966C30.4548 12.5882 30.5 12.7067 30.5 12.8295V20.9088C30.5 21.1849 30.2761 21.4088 30 21.4088H22C21.7239 21.4088 21.5 21.1849 21.5 20.9088V8.9668Z" stroke="#2F8342"/>
</svg>
