<svg width="40" height="40" viewBox="0 0 40 40" fill="none" xmlns="http://www.w3.org/2000/svg">
<g clip-path="url(#clip0_1_372)">
<path d="M32 31.5C28.4519 34.232 24.4593 35.9976 19.9813 35.9778C15.5032 35.9581 11.1594 34.4473 7.6355 31.6841L12.9486 29.1935C13.2016 29.0746 13.4445 28.9351 13.6747 28.7764C13.7446 28.7284 13.8145 28.6782 13.8811 28.6257C14.4593 28.1833 14.9353 27.6213 15.2765 26.9781C15.5344 26.4839 15.7058 25.9491 15.7831 25.3971C15.8364 25.0388 15.8634 24.6772 15.8639 24.315C15.8639 23.6904 15.8301 23.0659 15.8235 22.4402C15.8192 22.0945 15.8155 21.7483 15.8126 21.4019L16.031 21.511L16.5988 21.8048L16.8619 21.8495L19.9061 22.3671L23.304 22.9458L23.4066 26.4398L23.4405 27.5819L23.4569 28.1366V28.1704L24.778 28.7076L32 31.5Z" fill="#F2A196"/>
<path d="M23.4439 27.9118C23.0686 27.9763 22.6825 27.9165 22.3443 27.7414L15.8323 22.4152C15.8247 22.1685 15.8181 22.4272 15.8149 22.1805C15.8105 21.8347 15.8069 21.4886 15.804 21.1421L16.0223 21.2513L16.5901 21.545L16.8533 21.5898L19.8974 22.1073L23.2954 22.686L23.398 26.18L23.4318 27.3221L23.4482 27.8768V27.9128L23.4439 27.9118Z" fill="#E88870"/>
<path d="M38.4997 34.5002C35.5 37.5002 40 39.5002 20 39.0002C0.500002 38.5127 3.99999 38.0002 1.99996 35.0002C-7.24792e-05 32.0002 12.7467 29.1192 12.9997 29.0002C13.2527 28.8813 13.2935 28.677 13.5475 28.6261C13.6752 28.6005 13.8808 28.6261 13.8808 28.6261C13.8808 28.6261 19.9615 31.6102 22.9969 30.2443C23.7198 29.9167 24.3836 29.3882 24.7767 28.7091C25.1698 28.0299 41.4994 31.5002 38.4997 34.5002Z" fill="#00A550"/>
<path d="M30.41 9.92538C30.4001 9.9898 30.3881 10.0531 30.3739 10.1165C30.2982 10.4411 30.1765 10.7532 30.0125 11.0435L30.0038 11.0588C29.9415 11.1679 29.8749 11.2771 29.8029 11.3863C29.6117 11.6666 29.4031 11.9347 29.1783 12.1889L29.044 12.3384C28.9534 12.44 28.8617 12.5393 28.77 12.6376C28.8392 12.6228 28.9102 12.6187 28.9807 12.6256C29.0069 12.6278 29.0328 12.6321 29.0582 12.6387C29.4065 12.7108 29.7046 13.0351 29.7974 13.403C29.8029 13.427 29.8083 13.4522 29.8127 13.4762C29.899 13.9653 29.7035 14.4589 29.4622 14.8956C29.0397 15.6687 28.4304 16.183 27.8943 16.8545C27.4925 17.3545 27.2697 17.9463 26.8319 18.4246L26.7991 18.4606L26.7729 18.4868C25.6155 19.6792 23.8063 19.962 22.2962 20.4773C21.7502 20.6651 15.8301 22.3466 15.8301 22.7135C15.8301 22.6338 15.2503 22.0584 14.5198 21.3585C11.8993 18.8701 11.0378 15.0256 12.597 11.7281C14.273 8.17946 18.0793 5.64739 21.7044 4.43103C22.8378 4.05106 24.124 3.79556 25.1984 4.32184C26.2728 4.84813 26.8078 6.4805 25.9169 7.27757C26.4773 6.85358 27.1743 6.65105 27.8746 6.7087C28.5215 6.74922 29.1315 7.02359 29.5911 7.48066C29.8478 7.738 30.0544 8.04088 30.2003 8.37382C30.2604 8.51197 30.3104 8.65429 30.3499 8.79965C30.4482 9.1666 30.4687 9.55006 30.41 9.92538Z" fill="#F2D4CF"/>
<path d="M30.41 9.92539C30.4002 9.98981 30.3882 10.0531 30.374 10.1165C30.2983 10.4411 30.1766 10.7532 30.0126 11.0435L30.0039 11.0588C29.9416 11.1679 29.875 11.2771 29.803 11.3863C29.6118 11.6666 29.4032 11.9347 29.1784 12.1889L29.0441 12.3384C28.9535 12.44 28.8618 12.5394 28.77 12.6376C28.8392 12.6228 28.9103 12.6187 28.9808 12.6256C29.0069 12.6278 29.0329 12.6321 29.0583 12.6387C29.4066 12.7108 29.7047 13.0351 29.7975 13.403C29.803 13.4271 29.8084 13.4522 29.8128 13.4762C29.899 13.9653 29.7036 14.4589 29.4623 14.8956C29.0397 15.6687 28.4305 16.183 27.8943 16.8545C27.4925 17.3546 27.2698 17.9464 26.8319 18.4246L26.7992 18.4606L26.773 18.4868C26.334 17.8961 26.0542 17.2024 25.9606 16.4723C25.7739 14.9611 25.8875 13.3146 25.8362 11.7849C25.8187 11.2509 25.787 10.6144 25.9584 10.1077C26.0053 9.98231 26.0681 9.86342 26.1452 9.75396C26.3461 9.42982 26.5752 9.124 26.8298 8.84006C27.1185 8.53269 27.483 8.30675 27.8867 8.18493C28.1047 8.12298 28.3281 8.08203 28.5538 8.06264C28.7952 8.03897 29.0386 8.04373 29.2789 8.07683C29.5994 8.12259 29.9092 8.225 30.1939 8.37928C30.2539 8.51744 30.3039 8.65975 30.3434 8.80512C30.4432 9.16986 30.4659 9.55139 30.41 9.92539Z" fill="#DAAEA8"/>
<path d="M14.7383 20.1997C15.7634 20.1997 16.5945 19.3687 16.5945 18.3435C16.5945 17.3184 15.7634 16.4873 14.7383 16.4873C13.7131 16.4873 12.8821 17.3184 12.8821 18.3435C12.8821 19.3687 13.7131 20.1997 14.7383 20.1997Z" fill="#F2A196"/>
<path d="M15.3279 20.0053C16.2457 20.0053 16.9897 19.2613 16.9897 18.3435C16.9897 17.4257 16.2457 16.6816 15.3279 16.6816C14.41 16.6816 13.666 17.4257 13.666 18.3435C13.666 19.2613 14.41 20.0053 15.3279 20.0053Z" fill="#E88870"/>
<path d="M15.3518 16.5965L15.8322 22.8202L23.0867 27.0589C23.5885 27.2463 24.1421 27.2404 24.6398 27.0422C25.1375 26.844 25.5437 26.4678 25.7793 25.9867C26.8231 23.8488 28.4981 20.4738 28.2775 19.217C27.9499 17.3608 27.0764 16.7057 27.0764 16.7057L27.44 14.5285C27.5765 13.7085 27.7523 12.8524 27.5492 12.0281C27.3166 11.0836 26.6026 10.6796 26.0151 9.97314C24.469 11.9647 21.9271 13.0905 19.7073 14.2315C18.5619 14.8255 15.3518 16.5965 15.3518 16.5965Z" fill="#F2A196"/>
<path d="M23.4897 16.0615C23.481 16.0986 24.9485 20.0054 24.9485 20.0054L22.9896 20.1015" stroke="#00214E" stroke-width="0.5" stroke-miterlimit="10"/>
<path d="M18.8513 15.3048C19.8622 15.0961 20.9018 15.0669 21.9228 15.2185" stroke="#00214E" stroke-width="0.5" stroke-miterlimit="10"/>
<path d="M25.299 15.3171C25.9231 15.1729 26.5662 15.1283 27.2043 15.185" stroke="#00214E" stroke-width="0.5" stroke-miterlimit="10"/>
<path d="M20.9828 21.1932C20.9977 21.1696 21.0173 21.1493 21.0405 21.1336C21.0636 21.1179 21.0897 21.1072 21.1172 21.1021C21.1446 21.097 21.1729 21.0976 21.2001 21.1038C21.2273 21.1101 21.2529 21.1219 21.2754 21.1386C21.5025 21.298 21.9174 21.6365 22.507 21.7533C23.3106 21.9138 24.0073 21.5917 24.1743 21.7992C24.2682 21.916 24.1536 22.059 23.9341 22.2359C23.7043 22.408 23.4423 22.5324 23.1636 22.6016C22.8849 22.6708 22.5952 22.6834 22.3116 22.6388C21.5385 22.4936 20.9576 21.5983 20.9576 21.2805C20.9586 21.2498 20.9672 21.2197 20.9828 21.1932Z" fill="#E9E9E9"/>
<path d="M20.6944 16.5571C21.3605 16.5626 21.3605 17.5802 20.6944 17.5857H20.6638C19.9978 17.5802 19.9978 16.5626 20.6638 16.5571H20.6944Z" fill="#00214E"/>
<path d="M26.1823 16.4873C26.8003 16.4873 26.8003 17.4372 26.1823 17.4416H26.155C25.5359 17.4416 25.5359 16.4917 26.155 16.4873H26.1823Z" fill="#00214E"/>
<rect x="0.75" y="0.75" width="38.5" height="38.5" rx="7.25" stroke="#E9E9E9" stroke-width="1.5"/>
</g>
<defs>
<clipPath id="clip0_1_372">
<rect width="40" height="40" fill="white"/>
</clipPath>
</defs>
</svg>
